<svg width="115" height="115" viewBox="0 0 115 115" fill="none" xmlns="http://www.w3.org/2000/svg">
<path d="M57.5 91.0417C58.4477 91.0417 59.3741 90.7606 60.1621 90.2341C60.9501 89.7076 61.5643 88.9592 61.9269 88.0837C62.2896 87.2081 62.3845 86.2447 62.1996 85.3152C62.0147 84.3857 61.5584 83.5319 60.8882 82.8618C60.2181 82.1916 59.3643 81.7353 58.4348 81.5504C57.5053 81.3655 56.5419 81.4604 55.6663 81.8231C54.7908 82.1857 54.0424 82.7999 53.5159 83.5879C52.9894 84.3759 52.7083 85.3023 52.7083 86.25C52.7083 87.5208 53.2132 88.7396 54.1118 89.6382C55.0104 90.5368 56.2292 91.0417 57.5 91.0417ZM81.4583 91.0417C82.406 91.0417 83.3325 90.7606 84.1205 90.2341C84.9084 89.7076 85.5226 88.9592 85.8853 88.0837C86.2479 87.2081 86.3428 86.2447 86.1579 85.3152C85.9731 84.3857 85.5167 83.5319 84.8466 82.8618C84.1764 82.1916 83.3226 81.7353 82.3932 81.5504C81.4637 81.3655 80.5002 81.4604 79.6247 81.8231C78.7491 82.1857 78.0007 82.7999 77.4742 83.5879C76.9477 84.3759 76.6667 85.3023 76.6667 86.25C76.6667 87.5208 77.1715 88.7396 78.0701 89.6382C78.9687 90.5368 80.1875 91.0417 81.4583 91.0417ZM81.4583 71.875C82.406 71.875 83.3325 71.594 84.1205 71.0675C84.9084 70.5409 85.5226 69.7926 85.8853 68.917C86.2479 68.0415 86.3428 67.078 86.1579 66.1485C85.9731 65.219 85.5167 64.3652 84.8466 63.6951C84.1764 63.025 83.3226 62.5686 82.3932 62.3837C81.4637 62.1988 80.5002 62.2937 79.6247 62.6564C78.7491 63.0191 78.0007 63.6332 77.4742 64.4212C76.9477 65.2092 76.6667 66.1356 76.6667 67.0833C76.6667 68.3542 77.1715 69.5729 78.0701 70.4715C78.9687 71.3702 80.1875 71.875 81.4583 71.875ZM57.5 71.875C58.4477 71.875 59.3741 71.594 60.1621 71.0675C60.9501 70.5409 61.5643 69.7926 61.9269 68.917C62.2896 68.0415 62.3845 67.078 62.1996 66.1485C62.0147 65.219 61.5584 64.3652 60.8882 63.6951C60.2181 63.025 59.3643 62.5686 58.4348 62.3837C57.5053 62.1988 56.5419 62.2937 55.6663 62.6564C54.7908 63.0191 54.0424 63.6332 53.5159 64.4212C52.9894 65.2092 52.7083 66.1356 52.7083 67.0833C52.7083 68.3542 53.2132 69.5729 54.1118 70.4715C55.0104 71.3702 56.2292 71.875 57.5 71.875ZM91.0417 14.375H86.25V9.58332C86.25 8.31249 85.7452 7.09371 84.8466 6.1951C83.948 5.29649 82.7292 4.79166 81.4583 4.79166C80.1875 4.79166 78.9687 5.29649 78.0701 6.1951C77.1715 7.09371 76.6667 8.31249 76.6667 9.58332V14.375H38.3333V9.58332C38.3333 8.31249 37.8285 7.09371 36.9299 6.1951C36.0313 5.29649 34.8125 4.79166 33.5417 4.79166C32.2708 4.79166 31.0521 5.29649 30.1535 6.1951C29.2548 7.09371 28.75 8.31249 28.75 9.58332V14.375H23.9583C20.1459 14.375 16.4895 15.8895 13.7937 18.5853C11.0978 21.2812 9.58334 24.9375 9.58334 28.75V95.8333C9.58334 99.6458 11.0978 103.302 13.7937 105.998C16.4895 108.694 20.1459 110.208 23.9583 110.208H91.0417C94.8542 110.208 98.5105 108.694 101.206 105.998C103.902 103.302 105.417 99.6458 105.417 95.8333V28.75C105.417 24.9375 103.902 21.2812 101.206 18.5853C98.5105 15.8895 94.8542 14.375 91.0417 14.375ZM95.8333 95.8333C95.8333 97.1042 95.3285 98.3229 94.4299 99.2216C93.5313 100.12 92.3125 100.625 91.0417 100.625H23.9583C22.6875 100.625 21.4687 100.12 20.5701 99.2216C19.6715 98.3229 19.1667 97.1042 19.1667 95.8333V52.7083H95.8333V95.8333ZM95.8333 43.125H19.1667V28.75C19.1667 27.4792 19.6715 26.2604 20.5701 25.3618C21.4687 24.4632 22.6875 23.9583 23.9583 23.9583H28.75V28.75C28.75 30.0208 29.2548 31.2396 30.1535 32.1382C31.0521 33.0368 32.2708 33.5417 33.5417 33.5417C34.8125 33.5417 36.0313 33.0368 36.9299 32.1382C37.8285 31.2396 38.3333 30.0208 38.3333 28.75V23.9583H76.6667V28.75C76.6667 30.0208 77.1715 31.2396 78.0701 32.1382C78.9687 33.0368 80.1875 33.5417 81.4583 33.5417C82.7292 33.5417 83.948 33.0368 84.8466 32.1382C85.7452 31.2396 86.25 30.0208 86.25 28.75V23.9583H91.0417C92.3125 23.9583 93.5313 24.4632 94.4299 25.3618C95.3285 26.2604 95.8333 27.4792 95.8333 28.75V43.125ZM33.5417 71.875C34.4894 71.875 35.4158 71.594 36.2038 71.0675C36.9918 70.5409 37.6059 69.7926 37.9686 68.917C38.3313 68.0415 38.4262 67.078 38.2413 66.1485C38.0564 65.219 37.6 64.3652 36.9299 63.6951C36.2598 63.025 35.406 62.5686 34.4765 62.3837C33.547 62.1988 32.5835 62.2937 31.708 62.6564C30.8324 63.0191 30.0841 63.6332 29.5576 64.4212C29.031 65.2092 28.75 66.1356 28.75 67.0833C28.75 68.3542 29.2548 69.5729 30.1535 70.4715C31.0521 71.3702 32.2708 71.875 33.5417 71.875ZM33.5417 91.0417C34.4894 91.0417 35.4158 90.7606 36.2038 90.2341C36.9918 89.7076 37.6059 88.9592 37.9686 88.0837C38.3313 87.2081 38.4262 86.2447 38.2413 85.3152C38.0564 84.3857 37.6 83.5319 36.9299 82.8618C36.2598 82.1916 35.406 81.7353 34.4765 81.5504C33.547 81.3655 32.5835 81.4604 31.708 81.8231C30.8324 82.1857 30.0841 82.7999 29.5576 83.5879C29.031 84.3759 28.75 85.3023 28.75 86.25C28.75 87.5208 29.2548 88.7396 30.1535 89.6382C31.0521 90.5368 32.2708 91.0417 33.5417 91.0417Z" fill="white"/>
</svg>
