<svg width="111" height="117" viewBox="0 0 111 117" fill="none" xmlns="http://www.w3.org/2000/svg">
<path d="M55.5 9.75C46.5297 9.76796 37.758 12.5351 30.2532 17.7145C22.7484 22.8938 16.8345 30.2618 13.2319 38.9209C9.62919 47.58 8.49324 57.1565 9.96237 66.4841C11.4315 75.8116 15.4423 84.4875 21.5063 91.455V91.455C25.8372 96.4034 31.0936 100.353 36.9442 103.054C42.7948 105.755 49.1128 107.149 55.5 107.149C61.8872 107.149 68.2052 105.755 74.0558 103.054C79.9064 100.353 85.1628 96.4034 89.4938 91.455V91.455C95.5577 84.4875 99.5685 75.8116 101.038 66.4841C102.507 57.1565 101.371 47.58 97.7682 38.9209C94.1655 30.2618 88.2516 22.8938 80.7468 17.7145C73.242 12.5351 64.4703 9.76796 55.5 9.75V9.75ZM55.5 97.5C45.9192 97.4847 36.7175 93.5526 29.8313 86.5312C31.922 81.1665 35.4785 76.578 40.049 73.3487C44.6196 70.1195 49.9977 68.3953 55.5 68.3953C61.0023 68.3953 66.3804 70.1195 70.951 73.3487C75.5215 76.578 79.078 81.1665 81.1687 86.5312C74.2825 93.5526 65.0808 97.4847 55.5 97.5ZM46.25 48.75C46.25 46.8216 46.7925 44.9366 47.8089 43.3332C48.8253 41.7298 50.27 40.4801 51.9602 39.7422C53.6504 39.0042 55.5103 38.8111 57.3046 39.1873C59.0989 39.5635 60.7471 40.4921 62.0407 41.8557C63.3344 43.2193 64.2154 44.9566 64.5723 46.8479C64.9292 48.7392 64.746 50.6996 64.0459 52.4812C63.3458 54.2627 62.1602 55.7855 60.639 56.8568C59.1179 57.9282 57.3295 58.5 55.5 58.5C53.0467 58.5 50.694 57.4728 48.9593 55.6443C47.2246 53.8158 46.25 51.3359 46.25 48.75ZM87.4588 78C83.3265 70.5498 76.9665 64.7548 69.375 61.5225C71.7299 58.708 73.2643 55.237 73.7941 51.526C74.3238 47.8151 73.8264 44.0218 72.3616 40.6014C70.8968 37.181 68.5267 34.2788 65.5358 32.2431C62.5449 30.2073 59.0603 29.1245 55.5 29.1245C51.9397 29.1245 48.4551 30.2073 45.4642 32.2431C42.4733 34.2788 40.1032 37.181 38.6384 40.6014C37.1736 44.0218 36.6762 47.8151 37.2059 51.526C37.7357 55.237 39.2701 58.708 41.625 61.5225C34.0335 64.7548 27.6735 70.5498 23.5413 78C20.248 72.0871 18.508 65.3565 18.5 58.5C18.5 48.1566 22.3982 38.2368 29.3371 30.9228C36.2759 23.6089 45.687 19.5 55.5 19.5C65.313 19.5 74.7241 23.6089 81.663 30.9228C88.6018 38.2368 92.5 48.1566 92.5 58.5C92.492 65.3565 90.752 72.0871 87.4588 78V78Z" fill="white"/>
</svg>
