<svg width="43" height="43" viewBox="0 0 43 43" fill="none" xmlns="http://www.w3.org/2000/svg">
<path d="M35.8333 14.3333L25.0833 4.90918C24.0979 4.02776 22.8221 3.54047 21.5 3.54047C20.1779 3.54047 18.9021 4.02776 17.9167 4.90918L7.16665 14.3333C6.59756 14.8423 6.14343 15.4667 5.8345 16.1649C5.52557 16.8631 5.36892 17.619 5.37499 18.3825V34.0417C5.37499 35.4672 5.94128 36.8344 6.94929 37.8424C7.9573 38.8504 9.32445 39.4167 10.75 39.4167H32.25C33.6755 39.4167 35.0427 38.8504 36.0507 37.8424C37.0587 36.8344 37.625 35.4672 37.625 34.0417V18.3646C37.6285 17.6041 37.4706 16.8516 37.1618 16.1567C36.8529 15.4618 36.4001 14.8403 35.8333 14.3333V14.3333ZM25.0833 35.8333H17.9167V26.875C17.9167 26.3998 18.1054 25.9441 18.4414 25.6081C18.7774 25.2721 19.2331 25.0833 19.7083 25.0833H23.2917C23.7668 25.0833 24.2225 25.2721 24.5586 25.6081C24.8946 25.9441 25.0833 26.3998 25.0833 26.875V35.8333ZM34.0417 34.0417C34.0417 34.5169 33.8529 34.9726 33.5169 35.3086C33.1809 35.6446 32.7252 35.8333 32.25 35.8333H28.6667V26.875C28.6667 25.4495 28.1004 24.0823 27.0924 23.0743C26.0843 22.0663 24.7172 21.5 23.2917 21.5H19.7083C18.2828 21.5 16.9156 22.0663 15.9076 23.0743C14.8996 24.0823 14.3333 25.4495 14.3333 26.875V35.8333H10.75C10.2748 35.8333 9.81909 35.6446 9.48309 35.3086C9.14708 34.9726 8.95832 34.5169 8.95832 34.0417V18.3646C8.95864 18.1102 9.01313 17.8588 9.11817 17.6271C9.2232 17.3954 9.37637 17.1887 9.56749 17.0208L20.3175 7.61459C20.6444 7.32736 21.0648 7.16895 21.5 7.16895C21.9352 7.16895 22.3555 7.32736 22.6825 7.61459L33.4325 17.0208C33.6236 17.1887 33.7768 17.3954 33.8818 17.6271C33.9868 17.8588 34.0413 18.1102 34.0417 18.3646V34.0417Z" fill="#630036"/>
</svg>
