<svg width="115" height="115" viewBox="0 0 115 115" fill="none" xmlns="http://www.w3.org/2000/svg">
<path d="M91.0417 19.1667H23.9583C20.1458 19.1667 16.4895 20.6812 13.7937 23.377C11.0978 26.0728 9.58333 29.7292 9.58333 33.5417V81.4583C9.58333 85.2708 11.0978 88.9272 13.7937 91.623C16.4895 94.3188 20.1458 95.8333 23.9583 95.8333H91.0417C94.8541 95.8333 98.5105 94.3188 101.206 91.623C103.902 88.9272 105.417 85.2708 105.417 81.4583V33.5417C105.417 29.7292 103.902 26.0728 101.206 23.377C98.5105 20.6812 94.8541 19.1667 91.0417 19.1667V19.1667ZM23.9583 28.75H91.0417C92.3125 28.75 93.5313 29.2548 94.4299 30.1534C95.3285 31.0521 95.8333 32.2708 95.8333 33.5417L57.5 56.925L19.1667 33.5417C19.1667 32.2708 19.6715 31.0521 20.5701 30.1534C21.4687 29.2548 22.6875 28.75 23.9583 28.75V28.75ZM95.8333 81.4583C95.8333 82.7292 95.3285 83.9479 94.4299 84.8466C93.5313 85.7452 92.3125 86.25 91.0417 86.25H23.9583C22.6875 86.25 21.4687 85.7452 20.5701 84.8466C19.6715 83.9479 19.1667 82.7292 19.1667 81.4583V44.4667L55.0083 66.3646C55.7368 66.7851 56.563 67.0065 57.4042 67.0065C58.2453 67.0065 59.0716 66.7851 59.8 66.3646L95.8333 44.4667V81.4583Z" fill="white"/>
</svg>
