<svg width="121" height="121" viewBox="0 0 121 121" fill="none" xmlns="http://www.w3.org/2000/svg">
<path d="M50.4167 65.5417H70.5833C71.9205 65.5417 73.2028 65.0105 74.1483 64.065C75.0938 63.1195 75.625 61.8371 75.625 60.5C75.625 59.1629 75.0938 57.8805 74.1483 56.935C73.2028 55.9895 71.9205 55.4583 70.5833 55.4583H50.4167C49.0795 55.4583 47.7972 55.9895 46.8517 56.935C45.9062 57.8805 45.375 59.1629 45.375 60.5C45.375 61.8371 45.9062 63.1195 46.8517 64.065C47.7972 65.0105 49.0795 65.5417 50.4167 65.5417V65.5417ZM95.7917 15.125H25.2083C21.6613 15.1525 18.2368 16.4258 15.5334 18.7223C12.83 21.0188 11.0198 24.1924 10.4191 27.6883C9.81845 31.1842 10.4656 34.78 12.2474 37.8471C14.0292 40.9143 16.8323 43.2576 20.1667 44.4675V90.75C20.1667 94.7614 21.7602 98.6085 24.5967 101.445C27.4332 104.281 31.2803 105.875 35.2917 105.875H85.7083C89.7197 105.875 93.5669 104.281 96.4033 101.445C99.2398 98.6085 100.833 94.7614 100.833 90.75V44.4675C104.168 43.2576 106.971 40.9143 108.753 37.8471C110.534 34.78 111.182 31.1842 110.581 27.6883C109.98 24.1924 108.17 21.0188 105.467 18.7223C102.763 16.4258 99.3387 15.1525 95.7917 15.125ZM90.75 90.75C90.75 92.0871 90.2188 93.3695 89.2733 94.315C88.3278 95.2605 87.0455 95.7917 85.7083 95.7917H35.2917C33.9545 95.7917 32.6722 95.2605 31.7267 94.315C30.7812 93.3695 30.25 92.0871 30.25 90.75V45.375H90.75V90.75ZM95.7917 35.2917H25.2083C23.8712 35.2917 22.5888 34.7605 21.6433 33.815C20.6979 32.8695 20.1667 31.5871 20.1667 30.25C20.1667 28.9129 20.6979 27.6305 21.6433 26.685C22.5888 25.7395 23.8712 25.2083 25.2083 25.2083H95.7917C97.1288 25.2083 98.4112 25.7395 99.3567 26.685C100.302 27.6305 100.833 28.9129 100.833 30.25C100.833 31.5871 100.302 32.8695 99.3567 33.815C98.4112 34.7605 97.1288 35.2917 95.7917 35.2917Z" fill="white"/>
</svg>
