<svg width="113" height="113" viewBox="0 0 113 113" fill="none" xmlns="http://www.w3.org/2000/svg">
<path d="M48.0721 69.4479C48.5098 69.8892 49.0305 70.2395 49.6043 70.4785C50.178 70.7176 50.7934 70.8406 51.415 70.8406C52.0365 70.8406 52.652 70.7176 53.2257 70.4785C53.7995 70.2395 54.3202 69.8892 54.7579 69.4479L73.9679 50.2379C74.8545 49.3513 75.3526 48.1488 75.3526 46.895C75.3526 45.6412 74.8545 44.4387 73.9679 43.5521C73.0813 42.6655 71.8788 42.1674 70.625 42.1674C69.3712 42.1674 68.1687 42.6655 67.2821 43.5521L51.415 59.4662L45.7179 53.7221C44.8313 52.8355 43.6288 52.3374 42.375 52.3374C41.1212 52.3374 39.9187 52.8355 39.0321 53.7221C38.1455 54.6087 37.6474 55.8112 37.6474 57.065C37.6474 58.3188 38.1455 59.5213 39.0321 60.4079L48.0721 69.4479ZM98.875 9.41666H14.125C12.8763 9.41666 11.6787 9.91271 10.7957 10.7957C9.91271 11.6787 9.41666 12.8763 9.41666 14.125V98.875C9.41666 100.124 9.91271 101.321 10.7957 102.204C11.6787 103.087 12.8763 103.583 14.125 103.583H98.875C100.124 103.583 101.321 103.087 102.204 102.204C103.087 101.321 103.583 100.124 103.583 98.875V14.125C103.583 12.8763 103.087 11.6787 102.204 10.7957C101.321 9.91271 100.124 9.41666 98.875 9.41666V9.41666ZM94.1667 94.1667H18.8333V18.8333H94.1667V94.1667Z" fill="white"/>
</svg>
