<svg width="30" height="31" viewBox="0 0 30 31" fill="none" xmlns="http://www.w3.org/2000/svg">
<path d="M27 15.5C27 22.4036 21.4036 28 14.5 28C7.59644 28 2 22.4036 2 15.5C2 8.59644 7.59644 3 14.5 3C21.4036 3 27 8.59644 27 15.5Z" fill="#F6B3B9"/>
<path d="M19.08 10.8187L12.645 17.0896L10.17 14.6833C10.0355 14.5307 9.87006 14.4067 9.68396 14.3191C9.49786 14.2316 9.29517 14.1824 9.08859 14.1747C8.88201 14.1669 8.67601 14.2007 8.48352 14.2741C8.29103 14.3474 8.11621 14.4586 7.97003 14.6007C7.82385 14.7428 7.70946 14.9128 7.63405 15.0999C7.55864 15.2871 7.52383 15.4874 7.53181 15.6882C7.53979 15.889 7.59038 16.0861 7.68042 16.267C7.77045 16.448 7.89798 16.6088 8.05501 16.7396L11.58 20.1812C11.7202 20.3164 11.8864 20.4233 12.0691 20.4959C12.2519 20.5685 12.4476 20.6053 12.645 20.6042C13.0385 20.6025 13.4156 20.4507 13.695 20.1812L21.195 12.8896C21.3356 12.754 21.4472 12.5927 21.5233 12.415C21.5995 12.2373 21.6387 12.0467 21.6387 11.8542C21.6387 11.6616 21.5995 11.471 21.5233 11.2933C21.4472 11.1156 21.3356 10.9543 21.195 10.8187C20.914 10.5471 20.5338 10.3947 20.1375 10.3947C19.7412 10.3947 19.3611 10.5471 19.08 10.8187ZM15 0.916656C12.0333 0.916656 9.13319 1.77195 6.66645 3.37439C4.19972 4.97683 2.27713 7.25443 1.14181 9.91919C0.00649929 12.5839 -0.290551 15.5162 0.288228 18.3451C0.867006 21.1739 2.29562 23.7724 4.39341 25.812C6.49119 27.8515 9.16394 29.2404 12.0737 29.8031C14.9834 30.3658 17.9994 30.077 20.7403 28.9732C23.4812 27.8695 25.8238 26.0003 27.4721 23.6021C29.1203 21.2038 30 18.3843 30 15.5C30 13.5849 29.612 11.6885 28.8582 9.91919C28.1044 8.14986 26.9995 6.5422 25.6066 5.18802C24.2137 3.83383 22.5601 2.75963 20.7403 2.02675C18.9204 1.29387 16.9698 0.916656 15 0.916656ZM15 27.1667C12.6266 27.1667 10.3066 26.4824 8.33316 25.2005C6.35977 23.9185 4.8217 22.0964 3.91345 19.9646C3.0052 17.8328 2.76756 15.4871 3.23058 13.2239C3.69361 10.9608 4.8365 8.88202 6.51473 7.25041C8.19296 5.6188 10.3312 4.50766 12.6589 4.0575C14.9867 3.60733 17.3995 3.83837 19.5922 4.7214C21.7849 5.60442 23.6591 7.09976 24.9776 9.01834C26.2962 10.9369 27 13.1926 27 15.5C27 18.5942 25.7357 21.5616 23.4853 23.7496C21.2349 25.9375 18.1826 27.1667 15 27.1667Z" fill="#630036"/>
</svg>
