<svg width="109" height="109" viewBox="0 0 109 109" fill="none" xmlns="http://www.w3.org/2000/svg">
<path d="M98.7813 54.5C98.7787 53.6613 98.544 52.8397 98.1031 52.1262C97.6622 51.4128 97.0323 50.8353 96.2833 50.4579L68.4883 36.5604V18.3938C68.4883 14.6838 67.0146 11.1258 64.3912 8.50251C61.7679 5.87919 58.2099 4.40543 54.5 4.40543C50.7901 4.40543 47.2321 5.87919 44.6088 8.50251C41.9854 11.1258 40.5117 14.6838 40.5117 18.3938V36.5604L12.7167 50.4579C11.9677 50.8353 11.3378 51.4128 10.8969 52.1262C10.456 52.8397 10.2213 53.6613 10.2188 54.5V69.6238C10.2126 70.3636 10.3873 71.0938 10.7276 71.7508C11.068 72.4078 11.5637 72.9716 12.1717 73.3933C12.7762 73.8075 13.4719 74.0693 14.1995 74.1563C14.9271 74.2433 15.6649 74.1529 16.35 73.8929L40.5117 64.8096V81.75L32.2458 84.475C31.3438 84.7797 30.5603 85.3602 30.0061 86.1344C29.4519 86.9086 29.155 87.8375 29.1575 88.7896V99.9167C29.16 100.518 29.2817 101.112 29.5156 101.666C29.7495 102.219 30.0909 102.721 30.52 103.141C31.3659 103.98 32.5077 104.453 33.6992 104.458H75.3463C76.5508 104.458 77.706 103.98 78.5577 103.128C79.4094 102.276 79.8879 101.121 79.8879 99.9167V88.5625C79.8904 87.6104 79.5935 86.6816 79.0393 85.9073C78.4852 85.1331 77.7017 84.5526 76.7996 84.2479L68.4883 81.75V64.855L92.65 73.9383C93.3351 74.1983 94.0729 74.2887 94.8005 74.2017C95.5281 74.1147 96.2238 73.8529 96.8283 73.4388C97.4363 73.017 97.932 72.4532 98.2724 71.7962C98.6127 71.1392 98.7874 70.409 98.7813 69.6692V54.5ZM65.5817 54.0458C64.8903 53.778 64.144 53.6836 63.4077 53.7706C62.6714 53.8577 61.9677 54.1237 61.3579 54.5454C60.7563 54.9628 60.2645 55.5194 59.9245 56.1679C59.5844 56.8163 59.4062 57.5374 59.405 58.2696V84.7929C59.4057 85.7507 59.7092 86.6837 60.272 87.4586C60.8348 88.2335 61.6282 88.8106 62.5388 89.1075L70.7592 91.8325V95.375H38.1954V91.8325L46.4158 89.1075C47.3264 88.8106 48.1198 88.2335 48.6826 87.4586C49.2454 86.6837 49.5489 85.7507 49.5496 84.7929V58.2696C49.5484 57.5374 49.3702 56.8163 49.0301 56.1679C48.6901 55.5194 48.1983 54.9628 47.5967 54.5454C46.9869 54.1237 46.2831 53.8577 45.5469 53.7706C44.8106 53.6836 44.0643 53.778 43.3729 54.0458L19.2567 63.1292V57.3158L47.0063 43.4183C47.7637 43.0472 48.4029 42.4725 48.8521 41.7586C49.3013 41.0446 49.5428 40.2197 49.5496 39.3763V18.53C49.5496 17.2291 50.0664 15.9815 50.9862 15.0617C51.9061 14.1418 53.1537 13.625 54.4546 13.625C55.7555 13.625 57.0031 14.1418 57.9229 15.0617C58.8428 15.9815 59.3596 17.2291 59.3596 18.53V39.3763C59.3663 40.2197 59.6079 41.0446 60.0571 41.7586C60.5063 42.4725 61.1454 43.0472 61.9029 43.4183L89.6525 57.3158V63.0838L65.5817 54.0458Z" fill="white"/>
</svg>
